# xmcd CD database file
#
# Track frame offsets:
#	150
#	23202
#	46210
#
# Disc length: 1177 seconds
#
# Revision: 0
# Processed by: cddbd v1.4PL0 Copyright (c) Steve Scherf et al.
# Submitted via: CDex 1.50
#
DISCID=1b049703
DTITLE=Roffe Wikström - Singel
DYEAR=1993
DGENRE=Blues
TTITLE0=Jag Älskar Dej Ändå
TTITLE1=En Valsmelodi
TTITLE2=Som Vattnet Flyter I Floden
EXTD=YEAR: 1993
EXTT0=
EXTT1=
EXTT2=
PLAYORDER=
